<svg width="55" height="56" viewBox="0 0 55 56" fill="none" xmlns="http://www.w3.org/2000/svg">
<g filter="url(#filter0_d_3_224)">
<path d="M51 24.5C51 29.9369 49.1149 35.2055 45.6658 39.4083C42.2167 43.611 37.417 46.4878 32.0847 47.5485C26.7523 48.6091 21.2171 47.7881 16.4222 45.2252C11.6273 42.6623 7.86945 38.5161 5.78886 33.4931C3.70827 28.4701 3.4337 22.8811 5.01193 17.6783C6.59017 12.4756 9.92355 7.98103 14.4441 4.96048C18.9647 1.93993 24.3928 0.58027 29.8034 1.11317C35.2141 1.64608 40.2726 4.03857 44.117 7.883L41.5485 10.4515C38.2983 7.2013 34.0217 5.17862 29.4474 4.72808C24.8731 4.27755 20.284 5.42705 16.4622 7.98071C12.6404 10.5344 9.82221 14.3342 8.48792 18.7328C7.15364 23.1313 7.38577 27.8564 9.14476 32.103C10.9038 36.3496 14.0808 39.8549 18.1345 42.0217C22.1882 44.1884 26.8679 44.8826 31.376 43.9859C35.8842 43.0891 39.9419 40.657 42.8579 37.1039C45.7739 33.5508 47.3676 29.0965 47.3676 24.5H51Z" fill="white"/>
<path d="M19.0158 39.8059C15.4747 37.843 12.7237 34.7131 11.2317 30.9493C9.73959 27.1856 9.59871 23.0209 10.833 19.1649C12.0673 15.3089 14.6005 12.0002 18.0008 9.80253C21.4011 7.60485 25.4583 6.65418 29.481 7.11251C33.5037 7.57084 37.243 9.4098 40.0618 12.3161C42.8807 15.2223 44.6046 19.0161 44.9398 23.0509C45.2751 27.0857 44.201 31.1119 41.9005 34.4436C39.6 37.7752 36.2155 40.2061 32.3236 41.3221L31.578 38.7219C34.8683 37.7784 37.7297 35.7233 39.6746 32.9066C41.6195 30.0899 42.5276 26.686 42.2442 23.2749C41.9607 19.8637 40.5033 16.6564 38.1201 14.1993C35.737 11.7423 32.5757 10.1876 29.1748 9.8001C25.7739 9.41262 22.3438 10.2163 19.4691 12.0743C16.5943 13.9323 14.4527 16.7296 13.4092 19.9895C12.3657 23.2495 12.4848 26.7704 13.7463 29.9524C15.0077 33.1344 17.3334 35.7806 20.3272 37.44L19.0158 39.8059Z" fill="white"/>
<path d="M27.5 12C30.392 12 33.1944 13.0027 35.4299 14.8374C37.6654 16.672 39.1957 19.225 39.7598 22.0614C40.324 24.8977 39.8873 27.842 38.524 30.3925C37.1608 32.9429 34.9554 34.9418 32.2836 36.0485C29.6118 37.1552 26.6389 37.3012 23.8715 36.4618C21.1041 35.6223 18.7133 33.8492 17.1067 31.4446C15.5 29.0401 14.7768 26.1528 15.0602 23.2748C15.3437 20.3968 16.6163 17.7061 18.6612 15.6612L20.0274 17.0274C18.2986 18.7562 17.2227 21.031 16.983 23.4642C16.7434 25.8973 17.3548 28.3383 18.7132 30.3712C20.0715 32.4041 22.0927 33.9031 24.4323 34.6128C26.772 35.3225 29.2854 35.1991 31.5442 34.2634C33.803 33.3278 35.6675 31.6379 36.8201 29.4817C37.9726 27.3254 38.3418 24.8363 37.8648 22.4383C37.3879 20.0404 36.0942 17.882 34.2042 16.3309C32.3143 14.7799 29.945 13.9321 27.5 13.9321L27.5 12Z" fill="white"/>
<path d="M20.0301 20.4442C20.9684 18.7159 22.477 17.3666 24.2987 16.6259C26.1204 15.8853 28.1426 15.7992 30.0206 16.3823C31.8987 16.9655 33.5165 18.1818 34.5983 19.824C35.6801 21.4662 36.159 23.4328 35.9535 25.3885C35.7479 27.3442 34.8706 29.1682 33.471 30.5496C32.0714 31.931 30.2361 32.7844 28.2778 32.9643C26.3195 33.1443 24.3594 32.6397 22.7315 31.5364C21.1036 30.4332 19.9086 28.7997 19.3501 26.9141L20.7273 26.5062C21.1914 28.0731 22.1845 29.4306 23.5373 30.3474C24.8901 31.2642 26.519 31.6836 28.1464 31.534C29.7737 31.3845 31.2989 30.6753 32.462 29.5273C33.6251 28.3794 34.3542 26.8636 34.525 25.2384C34.6958 23.6131 34.2978 21.9789 33.3988 20.6142C32.4998 19.2495 31.1554 18.2387 29.5947 17.7541C28.034 17.2695 26.3535 17.341 24.8396 17.9565C23.3258 18.572 22.0721 19.6933 21.2924 21.1295L20.0301 20.4442Z" fill="white"/>
<path d="M31.2197 27.0327C30.6337 27.8933 29.7675 28.5241 28.7687 28.8176C27.7698 29.1111 26.7001 29.0492 25.7417 28.6424C24.7834 28.2356 23.9958 27.5091 23.513 26.5867C23.0303 25.6643 22.8823 24.603 23.0943 23.5837C23.3063 22.5644 23.8652 21.6502 24.6757 20.9968C25.4862 20.3434 26.4982 19.9912 27.5393 20.0003C28.5803 20.0094 29.586 20.3791 30.385 21.0466C31.184 21.7141 31.7269 22.6379 31.921 23.6607L31.0934 23.8179C30.9356 22.9865 30.4944 22.2356 29.845 21.6931C29.1955 21.1506 28.3781 20.85 27.5319 20.8426C26.6858 20.8353 25.8632 21.1215 25.2044 21.6526C24.5456 22.1837 24.0914 22.9268 23.9191 23.7553C23.7467 24.5837 23.867 25.4463 24.2594 26.1961C24.6517 26.9458 25.2919 27.5363 26.0709 27.867C26.8498 28.1976 27.7193 28.2479 28.5312 28.0094C29.3431 27.7708 30.0471 27.2581 30.5234 26.5586L31.2197 27.0327Z" fill="white"/>
<path d="M26.7068 22.1292C27.2553 21.9457 27.8504 21.9581 28.3909 22.1642C28.9313 22.3702 29.3835 22.7574 29.6705 23.2595C29.9575 23.7617 30.0615 24.3478 29.9648 24.918C29.8681 25.4883 29.5767 26.0074 29.1402 26.3868C28.7037 26.7663 28.1491 26.9826 27.5709 26.999C26.9928 27.0154 26.4268 26.8309 25.9695 26.4768C25.5122 26.1227 25.1918 25.621 25.0629 25.0571C24.934 24.4933 25.0046 23.9022 25.2627 23.3846L26.1394 23.8217C25.9825 24.1365 25.9395 24.4959 26.0179 24.8388C26.0963 25.1817 26.2911 25.4868 26.5693 25.7022C26.8474 25.9175 27.1916 26.0297 27.5431 26.0198C27.8947 26.0098 28.232 25.8782 28.4975 25.6475C28.7629 25.4167 28.9402 25.101 28.999 24.7543C29.0578 24.4075 28.9945 24.051 28.82 23.7456C28.6454 23.4403 28.3704 23.2048 28.0418 23.0795C27.7131 22.9542 27.3512 22.9467 27.0176 23.0583L26.7068 22.1292Z" fill="white"/>
<circle cx="27.5" cy="24.5" r="0.5" transform="rotate(-180 27.5 24.5)" fill="white"/>
</g>
<defs>
<filter id="filter0_d_3_224" x="2.28882e-05" y="0.999985" width="55" height="55.0001" filterUnits="userSpaceOnUse" color-interpolation-filters="sRGB">
<feFlood flood-opacity="0" result="BackgroundImageFix"/>
<feColorMatrix in="SourceAlpha" type="matrix" values="0 0 0 0 0 0 0 0 0 0 0 0 0 0 0 0 0 0 127 0" result="hardAlpha"/>
<feOffset dy="4"/>
<feGaussianBlur stdDeviation="2"/>
<feComposite in2="hardAlpha" operator="out"/>
<feColorMatrix type="matrix" values="0 0 0 0 0 0 0 0 0 0 0 0 0 0 0 0 0 0 0.25 0"/>
<feBlend mode="normal" in2="BackgroundImageFix" result="effect1_dropShadow_3_224"/>
<feBlend mode="normal" in="SourceGraphic" in2="effect1_dropShadow_3_224" result="shape"/>
</filter>
</defs>
</svg>
